<?xml version="1.0" encoding="utf-8"?>
<!-- Generator: Adobe Illustrator 19.2.1, SVG Export Plug-In . SVG Version: 6.00 Build 0)  -->
<!DOCTYPE svg PUBLIC "-//W3C//DTD SVG 1.1//EN" "http://www.w3.org/Graphics/SVG/1.1/DTD/svg11.dtd">
<svg version="1.1" id="Layer_1" xmlns="http://www.w3.org/2000/svg" xmlns:xlink="http://www.w3.org/1999/xlink" x="0px" y="0px"
	 viewBox="0 0 200 98.3" style="enable-background:new 0 0 200 98.3;" xml:space="preserve">
<style type="text/css">
	.st0{fill:#00B4D7;}
	.st1{fill:#D8D2C4;}
	.st2{fill:#4F5858;}
	.st3{fill:#FFC72C;}
	.st4{fill:#EF3340;}
</style>
<g>
	<polygon class="st0" points="0,67.9 0,47.4 16.8,41.9 46.6,52.1 	"/>
	<polygon class="st1" points="29.7,26.2 0,36.4 16.8,41.9 46.6,31.7 	"/>
	<polygon class="st2" points="16.8,41.9 46.6,31.7 46.6,52.1 	"/>
	<polygon class="st3" points="46.6,0.2 46.6,20.6 29.7,26.2 0,15.9 	"/>
	<polygon class="st4" points="29.7,26.2 0,36.4 0,15.9 	"/>
	<g>
		<path class="st2" d="M117.6,89h1.2v1.1h-1.2V89z M117.6,91h1.2v5.3h-1.2V91z"/>
		<path class="st2" d="M119.5,89h5.9v1.1h-2.3v6.2h-1.3v-6.2h-2.3V89z"/>
		<path class="st2" d="M126.2,89h1.2v2.7h0c0.3-0.5,0.9-0.8,1.6-0.8c1.1,0,1.9,0.6,1.9,1.8v3.6h-1.2v-3.3c0-0.8-0.3-1.2-1-1.2
			c-0.8,0-1.3,0.6-1.3,1.4v3.1h-1.2V89z"/>
		<path class="st2" d="M132.7,93.9c0,0.8,0.4,1.6,1.4,1.6c0.7,0,1.1-0.3,1.3-0.9h1.1c-0.3,1.1-1.2,1.8-2.4,1.8
			c-1.6,0-2.6-1.1-2.6-2.8c0-1.5,1-2.8,2.5-2.8c1.7,0,2.7,1.5,2.5,3.1H132.7z M135.4,93.1c0-0.7-0.5-1.4-1.3-1.4
			c-0.8,0-1.4,0.6-1.4,1.4H135.4z"/>
		<path class="st2" d="M137.4,91h1.1v0.8l0,0c0.3-0.6,0.9-0.9,1.6-0.9c1.1,0,1.9,0.6,1.9,1.8v3.6h-1.2v-3.3c0-0.8-0.3-1.2-1-1.2
			c-0.8,0-1.3,0.6-1.3,1.4v3.1h-1.2V91z"/>
		<path class="st2" d="M142.6,91h0.9v-1.6h1.2V91h1v0.9h-1v2.8c0,0.5,0,0.7,0.6,0.7c0.2,0,0.3,0,0.5,0v0.9c-0.3,0-0.5,0.1-0.8,0.1
			c-1.2,0-1.4-0.5-1.5-1.3v-3.1h-0.9V91z"/>
		<path class="st2" d="M146.6,89h1.2v1.1h-1.2V89z M146.6,91h1.2v5.3h-1.2V91z"/>
		<path class="st2" d="M152.5,92.7c-0.1-0.6-0.6-1-1.2-1c-0.6,0-1.4,0.3-1.4,1.9c0,0.9,0.4,1.8,1.4,1.8c0.7,0,1.1-0.4,1.3-1.2h1.2
			c-0.2,1.4-1.1,2.1-2.4,2.1c-1.6,0-2.6-1.2-2.6-2.7c0-1.6,0.9-2.8,2.6-2.8c1.2,0,2.3,0.6,2.4,1.9H152.5z"/>
		<path class="st2" d="M159,95.1c0,0.3,0.1,0.4,0.3,0.4c0.1,0,0.2,0,0.3,0v0.8c-0.2,0.1-0.5,0.1-0.7,0.1c-0.5,0-0.8-0.2-0.9-0.6
			c-0.5,0.4-1.2,0.6-1.8,0.6c-0.9,0-1.8-0.5-1.8-1.5c0-1.3,1-1.5,2-1.6c0.8-0.2,1.6-0.1,1.6-0.7c0-0.6-0.6-0.7-1.1-0.7
			c-0.7,0-1.1,0.3-1.2,0.8h-1.2c0.1-1.4,1.2-1.7,2.4-1.7c1,0,2.1,0.4,2.1,1.5V95.1z M157.9,93.6c-0.4,0.2-0.9,0.2-1.4,0.3
			c-0.5,0.1-0.9,0.3-0.9,0.9c0,0.5,0.7,0.7,1.1,0.7c0.5,0,1.3-0.3,1.3-1V93.6z"/>
		<path class="st2" d="M159.8,91h0.9v-1.6h1.2V91h1v0.9h-1v2.8c0,0.5,0,0.7,0.6,0.7c0.2,0,0.3,0,0.5,0v0.9c-0.3,0-0.5,0.1-0.8,0.1
			c-1.2,0-1.4-0.5-1.5-1.3v-3.1h-0.9V91z"/>
		<path class="st2" d="M164.4,93.9c0,0.8,0.4,1.6,1.4,1.6c0.7,0,1.1-0.3,1.3-0.9h1.1c-0.3,1.1-1.2,1.8-2.4,1.8
			c-1.6,0-2.6-1.1-2.6-2.8c0-1.5,1-2.8,2.5-2.8c1.7,0,2.7,1.5,2.5,3.1H164.4z M167.1,93.1c0-0.7-0.5-1.4-1.3-1.4
			c-0.8,0-1.4,0.6-1.4,1.4H167.1z"/>
	</g>
	<g>
		<path class="st2" d="M67.6,71.1C67.3,69,66,68.2,64,68.2c-1.6,0-3.2,0.6-3.2,2.5c0,1.8,2.3,2,4.6,2.6c2.3,0.5,4.6,1.3,4.6,4.1
			c0,3.1-3,4.3-5.6,4.3c-3.2,0-5.9-1.6-5.9-5.1h1.8c0,2.4,2,3.5,4.2,3.5c1.7,0,3.6-0.5,3.6-2.6c0-2-2.3-2.3-4.6-2.8
			c-2.3-0.5-4.6-1.2-4.6-3.8c0-2.9,2.6-4.2,5.2-4.2c2.9,0,5.2,1.4,5.3,4.5H67.6z"/>
		<path class="st2" d="M73.7,69H72v-2.1h1.7V69z M72,70.8h1.7v10.4H72V70.8z"/>
		<path class="st2" d="M75.8,70.8h1.6v1.5h0c0.8-1.2,1.9-1.8,3.4-1.8c1.3,0,2.4,0.5,2.9,1.8c0.7-1.1,1.9-1.8,3.3-1.8
			c2.1,0,3.5,0.9,3.5,3v7.6h-1.7v-6.8c0-1.3-0.3-2.3-2-2.3c-1.7,0-2.7,1-2.7,2.7v6.5h-1.7v-6.8c0-1.3-0.4-2.3-2-2.3
			c-2,0-2.8,1.9-2.8,2.7v6.5h-1.7V70.8z"/>
		<path class="st2" d="M94.3,69h-1.7v-2.1h1.7V69z M92.6,70.8h1.7v10.4h-1.7V70.8z"/>
		<path class="st2" d="M96.7,66.9h1.7v14.4h-1.7V66.9z"/>
		<path class="st2" d="M109.9,81.2c-0.3,0.2-0.7,0.3-1.2,0.3c-0.9,0-1.4-0.5-1.4-1.6c-0.9,1.1-2.2,1.6-3.7,1.6
			c-1.9,0-3.4-0.8-3.4-2.9c0-2.4,1.8-2.9,3.5-3.2c1.9-0.4,3.5-0.2,3.5-1.5c0-1.5-1.2-1.7-2.3-1.7c-1.4,0-2.5,0.4-2.6,2h-1.7
			c0.1-2.6,2.1-3.5,4.4-3.5c1.9,0,3.9,0.4,3.9,2.9v5.4c0,0.8,0,1.2,0.5,1.2c0.1,0,0.3,0,0.5-0.1V81.2z M107.2,75.9
			c-0.7,0.5-2,0.5-3.1,0.7c-1.1,0.2-2.1,0.6-2.1,1.9c0,1.1,1,1.5,2,1.5c2.3,0,3.2-1.4,3.2-2.4V75.9z"/>
		<path class="st2" d="M111.5,70.8h1.6V73h0c0.8-1.7,2-2.5,3.8-2.4v1.8c-2.8,0-3.8,1.6-3.8,4.2v4.6h-1.7V70.8z"/>
		<path class="st2" d="M120,69h-1.7v-2.1h1.7V69z M118.3,70.8h1.7v10.4h-1.7V70.8z"/>
		<path class="st2" d="M125.1,70.8h2.1v1.5h-2.1v6.5c0,0.8,0.2,0.9,1.3,0.9h0.8v1.5h-1.3c-1.8,0-2.5-0.4-2.5-2.3v-6.6h-1.8v-1.5h1.8
			v-3.1h1.7V70.8z"/>
		<path class="st2" d="M133.1,82.6c-0.8,2-1.5,2.8-3,2.8c-0.4,0-0.8,0-1.2-0.2v-1.6c0.3,0.1,0.7,0.2,1,0.2c0.7,0,1.1-0.3,1.4-0.9
			l0.7-1.8l-4.1-10.3h1.9l3,8.5h0l2.9-8.5h1.8L133.1,82.6z"/>
		<path class="st2" d="M155.1,71.2c-0.4-2-2-3.1-4-3.1c-3.4,0-4.9,2.8-4.9,5.8c0,3.3,1.4,6,4.9,6c2.5,0,4-1.8,4.1-4.1h1.9
			c-0.4,3.6-2.6,5.8-6.2,5.8c-4.5,0-6.6-3.3-6.6-7.5c0-4.2,2.4-7.6,6.8-7.6c3,0,5.5,1.6,5.9,4.7H155.1z"/>
		<path class="st2" d="M159,66.9h1.7v5.5h0c0.6-1.2,2-1.8,3.3-1.8c2.7,0,3.6,1.6,3.6,3.8v6.8h-1.7v-7c0-1.3-0.8-2.1-2.1-2.1
			c-2.1,0-3.1,1.4-3.1,3.3v5.9H159V66.9z"/>
		<path class="st2" d="M178.5,78c-0.5,2.3-2.1,3.5-4.4,3.5c-3.3,0-4.9-2.3-5-5.5c0-3.1,2.1-5.4,4.9-5.4c3.7,0,4.8,3.4,4.7,6h-7.8
			c-0.1,1.8,1,3.4,3.2,3.4c1.4,0,2.4-0.7,2.7-2H178.5z M176.8,75.1c-0.1-1.6-1.3-2.9-3-2.9c-1.8,0-2.9,1.3-3,2.9H176.8z"/>
		<path class="st2" d="M187.5,74.2c-0.3-1.3-1.2-2.1-2.6-2.1c-2.5,0-3.2,2-3.2,4.1c0,1.9,0.9,3.8,3,3.8c1.6,0,2.6-1,2.9-2.5h1.8
			c-0.4,2.5-2,4-4.6,4c-3.2,0-4.9-2.2-4.9-5.3c0-3.1,1.6-5.6,4.9-5.6c2.4,0,4.2,1.1,4.5,3.6H187.5z"/>
		<path class="st2" d="M190.8,66.9h1.7v8.5l4.7-4.5h2.3l-4.1,3.8l4.4,6.6h-2.2l-3.6-5.4l-1.6,1.5v3.9h-1.7V66.9z"/>
	</g>
	<g>
		<g>
			<g>
				<g>
					<path class="st2" d="M76.1,37.5c-0.4-2.6-2.9-4.6-5.8-4.6c-5.2,0-7.2,4.4-7.2,9.1c0,4.4,2,8.8,7.2,8.8c3.6,0,5.6-2.4,6-5.9H82
						c-0.6,6.6-5.1,10.8-11.6,10.8c-8.2,0-13-6.1-13-13.7c0-7.8,4.8-14,13-14c5.8,0,10.7,3.4,11.4,9.5H76.1z"/>
					<path class="st2" d="M84,36h5v3.6h0.1c1-2.4,3.6-4.1,6.1-4.1c0.4,0,0.8,0.1,1.1,0.2v4.9c-0.5-0.1-1.3-0.2-1.9-0.2
						c-3.9,0-5.2,2.8-5.2,6.1v8.6H84V36z"/>
					<path class="st2" d="M106.3,35.4c6,0,9.9,4,9.9,10.1c0,6.1-3.9,10.1-9.9,10.1c-6,0-9.9-4-9.9-10.1
						C96.5,39.4,100.3,35.4,106.3,35.4z M106.3,51.7c3.6,0,4.7-3.1,4.7-6.1c0-3.1-1.1-6.1-4.7-6.1c-3.6,0-4.6,3.1-4.6,6.1
						C101.7,48.6,102.8,51.7,106.3,51.7z"/>
					<path class="st2" d="M122.4,48.9c0,2.3,2,3.2,4,3.2c1.5,0,3.4-0.6,3.4-2.4c0-1.6-2.2-2.1-6-3c-3-0.7-6.1-1.7-6.1-5.1
						c0-4.9,4.2-6.1,8.3-6.1c4.2,0,8,1.4,8.4,6.1h-5c-0.1-2-1.7-2.6-3.6-2.6c-1.2,0-2.9,0.2-2.9,1.8c0,1.9,3,2.1,6,2.9
						c3.1,0.7,6.1,1.8,6.1,5.4c0,5-4.4,6.7-8.7,6.7c-4.4,0-8.8-1.7-9-6.7H122.4z"/>
					<path class="st2" d="M141.6,48.9c0,2.3,2,3.2,4,3.2c1.5,0,3.4-0.6,3.4-2.4c0-1.6-2.2-2.1-6-3c-3-0.7-6.1-1.7-6.1-5.1
						c0-4.9,4.2-6.1,8.3-6.1c4.2,0,8,1.4,8.4,6.1h-5c-0.1-2-1.7-2.6-3.6-2.6c-1.2,0-2.9,0.2-2.9,1.8c0,1.9,3,2.1,6,2.9
						c3.1,0.7,6.1,1.8,6.1,5.4c0,5-4.4,6.7-8.7,6.7c-4.4,0-8.8-1.7-9-6.7H141.6z"/>
					<path class="st2" d="M156,36h5v3.6h0.1c1-2.4,3.6-4.1,6.1-4.1c0.4,0,0.8,0.1,1.1,0.2v4.9c-0.5-0.1-1.3-0.2-1.9-0.2
						c-3.9,0-5.2,2.8-5.2,6.1v8.6H156V36z"/>
					<path class="st2" d="M174.1,46.8c0.1,3.3,1.8,4.9,4.7,4.9c2.1,0,3.8-1.3,4.1-2.5h4.6c-1.5,4.5-4.6,6.4-9,6.4
						c-6,0-9.8-4.1-9.8-10.1c0-5.7,4-10.1,9.8-10.1c6.5,0,9.7,5.5,9.3,11.4H174.1z M182.6,43.5c-0.5-2.7-1.6-4.1-4.2-4.1
						c-3.3,0-4.3,2.6-4.4,4.1H182.6z"/>
					<path class="st2" d="M190.8,39.5h-3.1V36h3.1v-1.5c0-3.4,2.1-5.8,6.4-5.8c0.9,0,1.9,0.1,2.8,0.1v3.9c-0.6-0.1-1.3-0.1-1.9-0.1
						c-1.4,0-2,0.6-2,2.2V36h3.6v3.5H196v15.6h-5.3V39.5z"/>
				</g>
			</g>
		</g>
	</g>
</g>
<g>
	<g>
		<path class="st2" d="M59,89h3.2c2.1,0,2.5,1.3,2.5,2.2c0,0.9-0.4,2.2-2.5,2.2h-1.9v2.8H59V89z M60.3,92.4h1.9
			c0.6,0,1.3-0.3,1.3-1.2c0-1-0.6-1.2-1.2-1.2h-1.9V92.4z"/>
		<path class="st2" d="M65.1,93.6c0-1.6,1-2.8,2.6-2.8c1.7,0,2.6,1.2,2.6,2.8c0,1.6-1,2.8-2.6,2.8C66,96.4,65.1,95.2,65.1,93.6z
			 M69.2,93.6c0-0.9-0.5-1.8-1.5-1.8c-1,0-1.5,0.9-1.5,1.8c0,0.9,0.5,1.9,1.5,1.9C68.7,95.5,69.2,94.5,69.2,93.6z"/>
		<path class="st2" d="M70.6,91h1.2l1,3.9h0l1-3.9H75l0.9,3.9h0l1.1-3.9h1.2l-1.6,5.2h-1.2l-1-3.9h0l-1,3.9h-1.2L70.6,91z"/>
		<path class="st2" d="M79.7,93.9c0,0.8,0.4,1.5,1.4,1.5c0.7,0,1.1-0.3,1.3-0.9h1.1c-0.3,1.1-1.2,1.8-2.4,1.8
			c-1.6,0-2.6-1.1-2.6-2.8c0-1.5,1-2.8,2.5-2.8c1.6,0,2.7,1.5,2.5,3.1H79.7z M82.4,93.2c0-0.7-0.5-1.4-1.3-1.4
			c-0.8,0-1.3,0.6-1.4,1.4H82.4z"/>
		<path class="st2" d="M84.6,91h1.1v1h0c0.1-0.6,0.8-1.2,1.5-1.2c0.3,0,0.3,0,0.4,0V92c-0.2,0-0.3-0.1-0.5-0.1
			c-0.8,0-1.4,0.6-1.4,1.8v2.5h-1.2V91z"/>
		<path class="st2" d="M89,93.9c0,0.8,0.4,1.5,1.4,1.5c0.7,0,1.1-0.3,1.3-0.9h1.1c-0.3,1.1-1.2,1.8-2.4,1.8c-1.6,0-2.6-1.1-2.6-2.8
			c0-1.5,1-2.8,2.5-2.8c1.6,0,2.7,1.5,2.5,3.1H89z M91.7,93.2c0-0.7-0.5-1.4-1.3-1.4c-0.8,0-1.3,0.6-1.4,1.4H91.7z"/>
		<path class="st2" d="M98.8,96.2h-1.1v-0.7h0c-0.3,0.6-1,0.8-1.6,0.8c-1.6,0-2.4-1.2-2.4-2.8c0-1.9,1.1-2.7,2.3-2.7
			c0.7,0,1.4,0.2,1.7,0.8h0V89h1.2V96.2z M96.2,95.5c1,0,1.5-0.9,1.5-1.9c0-1.2-0.6-1.8-1.4-1.8c-1.1,0-1.5,1-1.5,1.9
			C94.8,94.6,95.2,95.5,96.2,95.5z"/>
		<path class="st2" d="M103.1,89h1.2v2.7h0c0.3-0.5,1-0.8,1.6-0.8c1.6,0,2.4,1.3,2.4,2.8c0,1.4-0.7,2.7-2.3,2.7
			c-0.7,0-1.5-0.2-1.8-0.9h0v0.7h-1.1V89z M105.6,91.8c-1,0-1.5,0.7-1.5,1.9c0,1.1,0.5,1.8,1.5,1.8c1.1,0,1.4-0.9,1.4-1.8
			C107.1,92.7,106.6,91.8,105.6,91.8z"/>
		<path class="st2" d="M108.6,91h1.3l1.4,3.9h0l1.3-3.9h1.2l-2,5.5c-0.4,0.9-0.6,1.8-1.9,1.8c-0.3,0-0.5,0-0.8-0.1v-1
			c0.2,0,0.4,0.1,0.5,0.1c0.5,0,0.7-0.3,0.8-0.7l0.1-0.4L108.6,91z"/>
	</g>
</g>
</svg>
