<?xml version="1.0" encoding="utf-8"?>
<!-- Generator: Adobe Illustrator 25.2.1, SVG Export Plug-In . SVG Version: 6.00 Build 0)  -->
<svg version="1.1" id="Ebene_1" xmlns="http://www.w3.org/2000/svg" xmlns:xlink="http://www.w3.org/1999/xlink" x="0px" y="0px"
	 viewBox="0 0 206.9 41" style="enable-background:new 0 0 206.9 41;" xml:space="preserve">
<style type="text/css">
	.st0{clip-path:url(#SVGID_2_);fill:#1D1D1B;}
	.st1{clip-path:url(#SVGID_4_);fill:#1D1D1B;}
</style>
<g>
	<g>
		<defs>
			<rect id="SVGID_1_" x="0.4" y="-0.1" width="206.4" height="41.1"/>
		</defs>
		<clipPath id="SVGID_2_">
			<use xlink:href="#SVGID_1_"  style="overflow:visible;"/>
		</clipPath>
		<path class="st0" d="M198.7,24h-2.4v11.2h2.7V30c0-1.3,0.3-2.3,0.8-2.9c0.5-0.6,1.1-1,1.9-1c0.7,0,1.3,0.2,1.7,0.6
			s0.6,1.1,0.6,1.9v6.6h2.7v-6.6c0-1.5-0.4-2.7-1.1-3.6c-0.7-0.9-1.7-1.4-3.1-1.4c-1.6,0-2.8,0.7-3.6,2.2L198.7,24z M189.1,21.5
			c0.3,0.3,0.7,0.4,1.2,0.4s0.9-0.1,1.2-0.4c0.3-0.3,0.5-0.7,0.5-1.2s-0.2-0.9-0.5-1.2s-0.7-0.4-1.2-0.4s-1,0.1-1.2,0.4
			c-0.3,0.3-0.4,0.7-0.4,1.2S188.8,21.2,189.1,21.5 M189,35.2h2.7V23.9H189V35.2z M169.5,24l4.5,11.2l-0.3,1.1
			c-0.2,0.7-0.5,1.3-0.8,1.7s-0.8,0.6-1.3,0.6c-0.8,0-1.6-0.3-2.4-0.8v2.4c1,0.5,2,0.7,3,0.7s1.8-0.3,2.4-0.9
			c0.6-0.6,1.2-1.6,1.6-2.9l4.3-13.3h-2.8l-2.4,8.1l-2.7-8.1h-3.1V24z M168,33c-0.7,0.2-1.3,0.4-1.7,0.4c-0.9,0-1.3-0.5-1.3-1.4
			v-6.2h3.1V24H165v-3h-2.7v3h-1.6v1.8h1.6v6.3c0,1.1,0.4,2,1.1,2.6c0.3,0.3,0.7,0.5,1.2,0.6c0.4,0.1,1,0.2,1.5,0.2
			c0.6,0,1.4-0.2,2.4-0.6L168,33z M154.8,21.5c0.3,0.3,0.7,0.4,1.2,0.4s0.9-0.1,1.2-0.4c0.3-0.3,0.5-0.7,0.5-1.2s-0.2-0.9-0.5-1.2
			s-0.7-0.4-1.2-0.4s-1,0.1-1.2,0.4c-0.3,0.3-0.4,0.7-0.4,1.2S154.5,21.2,154.8,21.5 M154.7,35.2h2.7V23.9h-2.7V35.2z M142.4,24H140
			v11.2h2.7V30c0-1.3,0.3-2.3,0.8-2.9c0.5-0.6,1.1-1,1.9-1c0.7,0,1.3,0.2,1.7,0.6s0.6,1.1,0.6,1.9v6.6h2.7v-6.6
			c0-1.5-0.4-2.7-1.1-3.6c-0.7-0.9-1.7-1.4-3.1-1.4c-1.6,0-2.8,0.7-3.6,2.2L142.4,24z M133,35.2h2.7V23.9H133v5.6
			c0,1.1-0.3,2-0.9,2.7c-0.3,0.3-0.6,0.5-0.9,0.7c-0.4,0.1-0.8,0.2-1.3,0.2s-1-0.2-1.3-0.5c-0.4-0.4-0.5-0.9-0.5-1.7V24h-2.7v7.2
			c0,0.8,0.1,1.4,0.3,2c0.6,1.6,1.9,2.3,3.9,2.3c1.6,0,2.7-0.7,3.4-2.2V35.2z M112.2,24.3c-0.6-0.4-1.4-0.6-2.3-0.6
			c-1.6,0-2.8,0.7-3.6,2.2L106,24h-2.4v11.2h2.7V30c0-1.3,0.3-2.3,0.8-2.9c0.5-0.6,1.1-1,1.9-1s1.3,0.2,1.7,0.6s0.6,1.1,0.6,1.9v6.6
			h2.7v-5.3c0-1.3,0.3-2.2,0.7-2.9c0.5-0.6,1.1-0.9,1.8-0.9c0.7,0,1.3,0.2,1.7,0.6c0.4,0.4,0.6,1.1,0.6,1.9v6.6h2.8v-6.6
			c0-1.5-0.4-2.7-1.1-3.6c-0.7-0.9-1.8-1.4-3.1-1.4c-1.8,0-3.1,0.8-3.8,2.4C113.3,25.4,112.8,24.8,112.2,24.3 M90.2,24.3
			c-0.6-0.4-1.4-0.6-2.3-0.6c-1.6,0-2.8,0.7-3.6,2.2L84,24h-2.4v11.2h2.7V30c0-1.3,0.3-2.3,0.8-2.9c0.5-0.6,1.1-1,1.9-1
			c0.7,0,1.3,0.2,1.7,0.6c0.4,0.4,0.6,1.1,0.6,1.9v6.6H92v-5.3c0-1.3,0.3-2.2,0.7-2.9c0.5-0.6,1.1-0.9,1.8-0.9s1.3,0.2,1.7,0.6
			s0.6,1.1,0.6,1.9v6.6h2.8v-6.6c0-1.5-0.4-2.7-1.1-3.6c-0.7-0.9-1.8-1.4-3.1-1.4c-1.8,0-3.1,0.8-3.8,2.4
			C91.3,25.4,90.9,24.8,90.2,24.3 M74.9,32.3c-0.5,0.6-1.2,0.9-2,0.9s-1.5-0.3-1.9-0.9c-0.5-0.6-0.7-1.5-0.7-2.7s0.3-2.1,0.8-2.7
			c0.5-0.6,1.2-0.9,2-0.9s1.5,0.3,1.9,0.9c0.5,0.6,0.7,1.5,0.7,2.7S75.4,31.7,74.9,32.3 M69.1,25.1c-1.1,1.1-1.6,2.6-1.6,4.5
			S68,33,69.1,34c1,1,2.3,1.5,3.9,1.5s2.9-0.5,3.8-1.5c1.1-1.1,1.6-2.6,1.6-4.4c0-1.9-0.5-3.4-1.6-4.5c-0.5-0.5-1-0.9-1.7-1.1
			c-0.7-0.2-1.4-0.4-2.1-0.4C71.3,23.7,70,24.2,69.1,25.1 M54.6,21.9c-1.2,1.4-1.8,3.3-1.8,5.8c0,2.4,0.6,4.4,1.8,5.8
			c1.2,1.4,2.8,2.1,4.7,2.1s3.3-0.5,4.4-1.4c1.1-0.9,1.6-2.2,1.6-3.9h-2.9c0,0.8-0.3,1.5-0.8,2s-1.3,0.8-2.4,0.8
			c-1.1,0-1.9-0.5-2.5-1.4s-0.9-2.3-0.9-4s0.3-3,1-4c0.6-0.9,1.5-1.3,2.5-1.3c0.8,0,1.4,0.2,1.9,0.7s0.9,1.1,1.1,1.9l2.9-0.5
			c-0.3-1.4-0.9-2.5-1.9-3.3c-0.5-0.4-1.1-0.7-1.8-0.9S60,20,59.1,20C57.4,19.9,55.8,20.6,54.6,21.9 M41.1,24h-2.7v11.3h2.7v-4.9
			c0-2.5,0.9-3.8,2.7-3.8c0.4,0,0.8,0,1.3,0.1V24c-0.4-0.1-0.7-0.2-1-0.2c-1.4,0-2.4,0.8-3.1,2.4L41.1,24L41.1,24z M31.4,26.1
			c0.8,0.4,1.2,1.2,1.2,2.5h-4.8c0.1-0.8,0.3-1.4,0.8-1.9c0.4-0.5,1-0.8,1.8-0.8C30.8,25.9,31.1,25.9,31.4,26.1 M34,25.3
			c-0.9-1.1-2.1-1.6-3.6-1.6s-2.7,0.5-3.7,1.6s-1.6,2.5-1.6,4.3s0.5,3.2,1.6,4.3c1,1.1,2.2,1.6,3.7,1.6c1.3,0,2.3-0.3,3.2-1
			c0.8-0.6,1.4-1.5,1.6-2.7h-2.8c-0.2,1-0.9,1.5-2,1.5c-0.8,0-1.5-0.3-1.9-0.9c-0.4-0.6-0.6-1.3-0.7-2.2h7.3
			c0.1-0.4,0.1-0.9,0.1-1.5c0-0.5-0.1-1.1-0.3-1.8C34.6,26.4,34.4,25.8,34,25.3 M19.2,26.1c0.8,0.4,1.2,1.2,1.2,2.5h-4.8
			c0.1-0.8,0.3-1.4,0.8-1.9c0.4-0.5,1-0.8,1.8-0.8C18.5,25.9,18.9,25.9,19.2,26.1 M21.7,25.3c-0.9-1.1-2.1-1.6-3.6-1.6
			s-2.7,0.5-3.7,1.6s-1.5,2.5-1.5,4.3s0.5,3.2,1.5,4.3s2.2,1.6,3.7,1.6c1.3,0,2.3-0.3,3.2-1c0.8-0.6,1.4-1.5,1.5-2.7H20
			c-0.2,1-0.9,1.5-2,1.5c-0.8,0-1.5-0.3-1.9-0.9c-0.4-0.6-0.6-1.3-0.7-2.2h7.3c0.1-0.4,0.1-0.9,0.1-1.5c0-0.5-0.1-1.1-0.3-1.8
			S22.1,25.8,21.7,25.3 M3.1,27.4v-4.8h2.5c0.8,0,1.5,0.2,1.9,0.7s0.6,1,0.6,1.7s-0.2,1.3-0.6,1.7c-0.4,0.4-1.1,0.7-1.9,0.7
			L3.1,27.4L3.1,27.4z M5.7,20.2H0.4v15h2.8v-5.5h2.5c1.7,0,3-0.4,4-1.2c0.9-0.8,1.4-2,1.4-3.5s-0.5-2.7-1.4-3.5
			C8.7,20.6,7.3,20.2,5.7,20.2"/>
	</g>
	<g>
		<defs>
			<rect id="SVGID_3_" x="0.4" y="-0.1" width="206.4" height="41.1"/>
		</defs>
		<clipPath id="SVGID_4_">
			<use xlink:href="#SVGID_3_"  style="overflow:visible;"/>
		</clipPath>
		<path class="st1" d="M28.5,15.2h2.7v-15h-2.7V15.2z M14.6,1.9c-1.2,1.4-1.8,3.3-1.8,5.8c0,2.4,0.6,4.4,1.8,5.8
			c1.2,1.4,2.8,2.1,4.7,2.1s3.3-0.5,4.4-1.4c1.1-0.9,1.6-2.2,1.6-3.9h-2.9c0,0.8-0.3,1.5-0.8,2s-1.3,0.8-2.4,0.8
			c-1.1,0-1.9-0.5-2.5-1.4s-0.9-2.3-0.9-4s0.3-3,1-4c0.6-0.9,1.5-1.3,2.5-1.3c0.8,0,1.4,0.2,1.9,0.7s0.9,1.1,1.1,1.9l2.9-0.5
			c-0.3-1.4-0.9-2.5-1.9-3.3c-0.5-0.4-1.1-0.7-1.8-0.9S20,0,19.1,0C17.3-0.1,15.8,0.6,14.6,1.9 M3.1,7.4V2.6h2.5
			c0.8,0,1.5,0.2,1.9,0.7s0.6,1,0.6,1.7S7.9,6.3,7.5,6.7C7.1,7.1,6.4,7.4,5.6,7.4L3.1,7.4L3.1,7.4z M5.7,0.2H0.4v15h2.8V9.7h2.5
			c1.7,0,3-0.4,4-1.2c0.9-0.8,1.4-2,1.4-3.5s-0.5-2.7-1.4-3.5C8.7,0.6,7.3,0.2,5.7,0.2"/>
	</g>
</g>
</svg>
