<?xml version="1.0" encoding="utf-8"?>
<!-- Generator: Adobe Illustrator 25.2.1, SVG Export Plug-In . SVG Version: 6.00 Build 0)  -->
<svg version="1.1" id="Ebene_1" xmlns="http://www.w3.org/2000/svg" xmlns:xlink="http://www.w3.org/1999/xlink" x="0px" y="0px"
	 viewBox="0 0 31.4 25.4" style="enable-background:new 0 0 31.4 25.4;" xml:space="preserve">
<style type="text/css">
	.st0{clip-path:url(#SVGID_2_);fill:#0096BE;}
</style>
<g>
	<g>
		<defs>
			<rect id="SVGID_1_" x="0.2" width="31.2" height="25.4"/>
		</defs>
		<clipPath id="SVGID_2_">
			<use xlink:href="#SVGID_1_"  style="overflow:visible;"/>
		</clipPath>
		<path class="st0" d="M31.3,3c-1.2,0.5-2.4,0.8-3.7,1c1.3-0.8,2.3-2,2.8-3.5c-1.2,0.7-2.6,1.2-4.1,1.5c-1.2-1.2-2.8-2-4.7-2
			c-3.5,0-6.4,2.9-6.4,6.4c0,0.5,0.1,1,0.2,1.5c-5.3-0.3-10-2.8-13.2-6.7c-0.6,0.9-0.9,2-0.9,3.2c0,2.2,1.1,4.2,2.8,5.3
			c-1,0-2-0.3-2.9-0.8V9c0,3.1,2.2,5.7,5.1,6.3c-0.5,0.1-1.1,0.2-1.7,0.2c-0.4,0-0.8,0-1.2-0.1c0.8,2.5,3.2,4.4,6,4.4
			c-2.2,1.7-5,2.7-7.9,2.7c-0.5,0-1,0-1.5-0.1c2.8,1.8,6.2,2.9,9.8,2.9C21.6,25.3,28,15.6,28,7.1c0-0.3,0-0.5,0-0.8
			C29.4,5.5,30.5,4.3,31.3,3L31.3,3z"/>
	</g>
</g>
</svg>
