<?xml version="1.0" encoding="utf-8"?>
<!-- Generator: Adobe Illustrator 25.2.0, SVG Export Plug-In . SVG Version: 6.00 Build 0)  -->
<svg version="1.1" id="Ebene_1" xmlns="http://www.w3.org/2000/svg" xmlns:xlink="http://www.w3.org/1999/xlink" x="0px" y="0px"
	 viewBox="0 0 2000 2000" style="enable-background:new 0 0 2000 2000;" xml:space="preserve">
<style type="text/css">
	.st0{clip-path:url(#SVGID_2_);fill:#1D1D1B;}
</style>
<g>
	<defs>
		<rect id="SVGID_1_" x="918.8" y="976" width="206.4" height="41.1"/>
	</defs>
	<clipPath id="SVGID_2_">
		<use xlink:href="#SVGID_1_"  style="overflow:visible;"/>
	</clipPath>
	<path class="st0" d="M1117.1,1000.1h-2.4v11.2h2.7v-5.2c0-1.3,0.3-2.3,0.8-2.9c0.5-0.6,1.1-1,1.9-1c0.7,0,1.3,0.2,1.7,0.6
		s0.6,1.1,0.6,1.9v6.6h2.7v-6.6c0-1.5-0.4-2.7-1.1-3.6c-0.7-0.9-1.7-1.4-3.1-1.4c-1.6,0-2.8,0.7-3.6,2.2L1117.1,1000.1z
		 M1107.5,997.6c0.3,0.3,0.7,0.4,1.2,0.4c0.5,0,0.9-0.1,1.2-0.4c0.3-0.3,0.5-0.7,0.5-1.2s-0.2-0.9-0.5-1.2c-0.3-0.3-0.7-0.4-1.2-0.4
		c-0.5,0-1,0.1-1.2,0.4c-0.3,0.3-0.4,0.7-0.4,1.2S1107.2,997.3,1107.5,997.6 M1107.4,1011.3h2.7v-11.3h-2.7V1011.3z M1087.9,1000.1
		l4.5,11.2l-0.3,1.1c-0.2,0.7-0.5,1.3-0.8,1.7c-0.3,0.4-0.8,0.6-1.3,0.6c-0.8,0-1.6-0.3-2.4-0.8v2.4c1,0.5,2,0.7,3,0.7
		c1,0,1.8-0.3,2.4-0.9c0.6-0.6,1.2-1.6,1.6-2.9l4.3-13.3h-2.8l-2.4,8.1l-2.7-8.1H1087.9z M1086.4,1009.1c-0.7,0.2-1.3,0.4-1.7,0.4
		c-0.9,0-1.3-0.5-1.3-1.4v-6.2h3.1v-1.8h-3.1v-3h-2.7v3h-1.6v1.8h1.6v6.3c0,1.1,0.4,2,1.1,2.6c0.3,0.3,0.7,0.5,1.2,0.6
		c0.4,0.1,1,0.2,1.5,0.2c0.6,0,1.4-0.2,2.4-0.6L1086.4,1009.1z M1073.2,997.6c0.3,0.3,0.7,0.4,1.2,0.4c0.5,0,0.9-0.1,1.2-0.4
		c0.3-0.3,0.5-0.7,0.5-1.2s-0.2-0.9-0.5-1.2c-0.3-0.3-0.7-0.4-1.2-0.4c-0.5,0-1,0.1-1.2,0.4c-0.3,0.3-0.4,0.7-0.4,1.2
		S1072.9,997.3,1073.2,997.6 M1073.1,1011.3h2.7v-11.3h-2.7V1011.3z M1060.8,1000.1h-2.4v11.2h2.7v-5.2c0-1.3,0.3-2.3,0.8-2.9
		c0.5-0.6,1.1-1,1.9-1c0.7,0,1.3,0.2,1.7,0.6s0.6,1.1,0.6,1.9v6.6h2.7v-6.6c0-1.5-0.4-2.7-1.1-3.6c-0.7-0.9-1.7-1.4-3.1-1.4
		c-1.6,0-2.8,0.7-3.6,2.2L1060.8,1000.1z M1051.4,1011.3h2.7v-11.3h-2.7v5.6c0,1.1-0.3,2-0.9,2.7c-0.3,0.3-0.6,0.5-0.9,0.7
		c-0.4,0.1-0.8,0.2-1.3,0.2c-0.5,0-1-0.2-1.3-0.5c-0.4-0.4-0.5-0.9-0.5-1.7v-6.9h-2.7v7.2c0,0.8,0.1,1.4,0.3,2
		c0.6,1.6,1.9,2.3,3.9,2.3c1.6,0,2.7-0.7,3.4-2.2V1011.3z M1030.6,1000.4c-0.6-0.4-1.4-0.6-2.3-0.6c-1.6,0-2.8,0.7-3.6,2.2l-0.3-1.9
		h-2.4v11.2h2.7v-5.2c0-1.3,0.3-2.3,0.8-2.9c0.5-0.6,1.1-1,1.9-1s1.3,0.2,1.7,0.6s0.6,1.1,0.6,1.9v6.6h2.7v-5.3
		c0-1.3,0.3-2.2,0.7-2.9c0.5-0.6,1.1-0.9,1.8-0.9c0.7,0,1.3,0.2,1.7,0.6c0.4,0.4,0.6,1.1,0.6,1.9v6.6h2.8v-6.6
		c0-1.5-0.4-2.7-1.1-3.6c-0.7-0.9-1.8-1.4-3.1-1.4c-1.8,0-3.1,0.8-3.8,2.4C1031.7,1001.5,1031.2,1000.9,1030.6,1000.4
		 M1008.6,1000.4c-0.6-0.4-1.4-0.6-2.3-0.6c-1.6,0-2.8,0.7-3.6,2.2l-0.3-1.9h-2.4v11.2h2.7v-5.2c0-1.3,0.3-2.3,0.8-2.9
		c0.5-0.6,1.1-1,1.9-1c0.7,0,1.3,0.2,1.7,0.6c0.4,0.4,0.6,1.1,0.6,1.9v6.6h2.7v-5.3c0-1.3,0.3-2.2,0.7-2.9c0.5-0.6,1.1-0.9,1.8-0.9
		c0.7,0,1.3,0.2,1.7,0.6s0.6,1.1,0.6,1.9v6.6h2.8v-6.6c0-1.5-0.4-2.7-1.1-3.6c-0.7-0.9-1.8-1.4-3.1-1.4c-1.8,0-3.1,0.8-3.8,2.4
		C1009.7,1001.5,1009.3,1000.9,1008.6,1000.4 M993.3,1008.4c-0.5,0.6-1.2,0.9-2,0.9c-0.8,0-1.5-0.3-1.9-0.9
		c-0.5-0.6-0.7-1.5-0.7-2.7c0-1.2,0.3-2.1,0.8-2.7c0.5-0.6,1.2-0.9,2-0.9s1.5,0.3,1.9,0.9c0.5,0.6,0.7,1.5,0.7,2.7
		C994.1,1006.9,993.8,1007.8,993.3,1008.4 M987.5,1001.2c-1.1,1.1-1.6,2.6-1.6,4.5c0,1.9,0.5,3.4,1.6,4.4c1,1,2.3,1.5,3.9,1.5
		s2.9-0.5,3.8-1.5c1.1-1.1,1.6-2.6,1.6-4.4c0-1.9-0.5-3.4-1.6-4.5c-0.5-0.5-1-0.9-1.7-1.1c-0.7-0.2-1.4-0.4-2.1-0.4
		C989.7,999.8,988.4,1000.3,987.5,1001.2 M973,998c-1.2,1.4-1.8,3.3-1.8,5.8c0,2.4,0.6,4.4,1.8,5.8c1.2,1.4,2.8,2.1,4.7,2.1
		c1.9,0,3.3-0.5,4.4-1.4c1.1-0.9,1.6-2.2,1.6-3.9h-2.9c0,0.8-0.3,1.5-0.8,2c-0.5,0.5-1.3,0.8-2.4,0.8c-1.1,0-1.9-0.5-2.5-1.4
		c-0.6-0.9-0.9-2.3-0.9-4c0-1.7,0.3-3,1-4c0.6-0.9,1.5-1.3,2.5-1.3c0.8,0,1.4,0.2,1.9,0.7c0.5,0.5,0.9,1.1,1.1,1.9l2.9-0.5
		c-0.3-1.4-0.9-2.5-1.9-3.3c-0.5-0.4-1.1-0.7-1.8-0.9c-0.7-0.2-1.5-0.3-2.4-0.3C975.8,996,974.2,996.7,973,998 M959.5,1000.1h-2.7
		v11.3h2.7v-4.9c0-2.5,0.9-3.8,2.7-3.8c0.4,0,0.8,0,1.3,0.1l0-2.7c-0.4-0.1-0.7-0.2-1-0.2c-1.4,0-2.4,0.8-3.1,2.4V1000.1z
		 M949.8,1002.2c0.8,0.4,1.2,1.2,1.2,2.5h-4.8c0.1-0.8,0.3-1.4,0.8-1.9c0.4-0.5,1-0.8,1.8-0.8C949.2,1002,949.5,1002,949.8,1002.2
		 M952.4,1001.4c-0.9-1.1-2.1-1.6-3.6-1.6c-1.5,0-2.7,0.5-3.7,1.6c-1,1.1-1.6,2.5-1.6,4.3c0,1.8,0.5,3.2,1.6,4.3
		c1,1.1,2.2,1.6,3.7,1.6c1.3,0,2.3-0.3,3.2-1c0.8-0.6,1.4-1.5,1.6-2.7h-2.8c-0.2,1-0.9,1.5-2,1.5c-0.8,0-1.5-0.3-1.9-0.9
		c-0.4-0.6-0.6-1.3-0.7-2.2h7.3c0.1-0.4,0.1-0.9,0.1-1.5c0-0.5-0.1-1.1-0.3-1.8C953,1002.5,952.8,1001.9,952.4,1001.4 M937.6,1002.2
		c0.8,0.4,1.2,1.2,1.2,2.5h-4.8c0.1-0.8,0.3-1.4,0.8-1.9c0.4-0.5,1-0.8,1.8-0.8C936.9,1002,937.3,1002,937.6,1002.2 M940.1,1001.4
		c-0.9-1.1-2.1-1.6-3.6-1.6c-1.5,0-2.7,0.5-3.7,1.6c-1,1.1-1.5,2.5-1.5,4.3c0,1.8,0.5,3.2,1.5,4.3c1,1.1,2.2,1.6,3.7,1.6
		c1.3,0,2.3-0.3,3.2-1c0.8-0.6,1.4-1.5,1.5-2.7h-2.8c-0.2,1-0.9,1.5-2,1.5c-0.8,0-1.5-0.3-1.9-0.9c-0.4-0.6-0.6-1.3-0.7-2.2h7.3
		c0.1-0.4,0.1-0.9,0.1-1.5c0-0.5-0.1-1.1-0.3-1.8S940.5,1001.9,940.1,1001.4 M921.5,1003.5v-4.8h2.5c0.8,0,1.5,0.2,1.9,0.7
		c0.4,0.5,0.6,1,0.6,1.7c0,0.7-0.2,1.3-0.6,1.7c-0.4,0.4-1.1,0.7-1.9,0.7H921.5z M924.1,996.3h-5.3v15h2.8v-5.5h2.5
		c1.7,0,3-0.4,4-1.2c0.9-0.8,1.4-2,1.4-3.5c0-1.5-0.5-2.7-1.4-3.5C927.1,996.7,925.7,996.3,924.1,996.3"/>
	<path class="st0" d="M946.9,991.3h2.7v-15h-2.7V991.3z M933,978c-1.2,1.4-1.8,3.3-1.8,5.8c0,2.4,0.6,4.4,1.8,5.8
		c1.2,1.4,2.8,2.1,4.7,2.1c1.9,0,3.3-0.5,4.4-1.4c1.1-0.9,1.6-2.2,1.6-3.9h-2.9c0,0.8-0.3,1.5-0.8,2c-0.5,0.5-1.3,0.8-2.4,0.8
		c-1.1,0-1.9-0.5-2.5-1.4c-0.6-0.9-0.9-2.3-0.9-4c0-1.7,0.3-3,1-4c0.6-0.9,1.5-1.3,2.5-1.3c0.8,0,1.4,0.2,1.9,0.7
		c0.5,0.5,0.9,1.1,1.1,1.9l2.9-0.5c-0.3-1.4-0.9-2.5-1.9-3.3c-0.5-0.4-1.1-0.7-1.8-0.9s-1.5-0.3-2.4-0.3
		C935.7,976,934.2,976.7,933,978 M921.5,983.5v-4.8h2.5c0.8,0,1.5,0.2,1.9,0.7c0.4,0.5,0.6,1,0.6,1.7c0,0.7-0.2,1.3-0.6,1.7
		c-0.4,0.4-1.1,0.7-1.9,0.7H921.5z M924.1,976.3h-5.3v15h2.8v-5.5h2.5c1.7,0,3-0.4,4-1.2c0.9-0.8,1.4-2,1.4-3.5
		c0-1.5-0.5-2.7-1.4-3.5C927.1,976.7,925.7,976.3,924.1,976.3"/>
</g>
</svg>
