<?xml version="1.0" encoding="utf-8"?>
<!-- Generator: Adobe Illustrator 25.2.0, SVG Export Plug-In . SVG Version: 6.00 Build 0)  -->
<svg version="1.1" id="Ebene_1" xmlns="http://www.w3.org/2000/svg" xmlns:xlink="http://www.w3.org/1999/xlink" x="0px" y="0px"
	 viewBox="0 0 2000 2000" style="enable-background:new 0 0 2000 2000;" xml:space="preserve">
<style type="text/css">
	.st0{clip-path:url(#SVGID_2_);fill:#0096BE;}
</style>
<g>
	<defs>
		<rect id="SVGID_1_" x="1038.1" y="973.5" width="31.2" height="25.4"/>
	</defs>
	<clipPath id="SVGID_2_">
		<use xlink:href="#SVGID_1_"  style="overflow:visible;"/>
	</clipPath>
	<path class="st0" d="M1069.2,976.5c-1.2,0.5-2.4,0.8-3.7,1c1.3-0.8,2.3-2,2.8-3.5c-1.2,0.7-2.6,1.2-4.1,1.5c-1.2-1.2-2.8-2-4.7-2
		c-3.5,0-6.4,2.9-6.4,6.4c0,0.5,0.1,1,0.2,1.5c-5.3-0.3-10-2.8-13.2-6.7c-0.6,0.9-0.9,2-0.9,3.2c0,2.2,1.1,4.2,2.8,5.3
		c-1,0-2-0.3-2.9-0.8v0.1c0,3.1,2.2,5.7,5.1,6.3c-0.5,0.1-1.1,0.2-1.7,0.2c-0.4,0-0.8,0-1.2-0.1c0.8,2.5,3.2,4.4,6,4.4
		c-2.2,1.7-5,2.7-7.9,2.7c-0.5,0-1,0-1.5-0.1c2.8,1.8,6.2,2.9,9.8,2.9c11.8,0,18.2-9.7,18.2-18.2c0-0.3,0-0.5,0-0.8
		C1067.3,979,1068.4,977.8,1069.2,976.5L1069.2,976.5z"/>
</g>
</svg>
