<?xml version="1.0" encoding="utf-8"?>
<!-- Generator: Adobe Illustrator 25.2.1, SVG Export Plug-In . SVG Version: 6.00 Build 0)  -->
<svg version="1.1" id="Ebene_1" xmlns="http://www.w3.org/2000/svg" xmlns:xlink="http://www.w3.org/1999/xlink" x="0px" y="0px"
	 viewBox="0 0 9.2 8.3" style="enable-background:new 0 0 9.2 8.3;" xml:space="preserve">
<style type="text/css">
	.st0{clip-path:url(#SVGID_2_);fill:#00A0E6;}
</style>
<g>
	<g>
		<g>
			<defs>
				<rect id="SVGID_1_" width="9.1" height="8.2"/>
			</defs>
			<clipPath id="SVGID_2_">
				<use xlink:href="#SVGID_1_"  style="overflow:visible;"/>
			</clipPath>
			<path class="st0" d="M5.6,5.1L4.4,6.3C3.8,6.8,3.8,7.5,4.3,8C4.5,8.2,4.7,8.3,5,8.3c0.3,0,0.5-0.1,0.8-0.4l3.4-3.7L5.8,0.4
				C5.6,0.2,5.4,0.1,5.1,0.1c-0.2,0-0.5,0.1-0.7,0.3C3.9,0.9,4,1.6,4.5,2.1l1.2,1.2L5.2,3.2h-4c-0.8,0-1.1,0.5-1.1,1.1
				s0.4,1.1,1.1,1.1h4L5.6,5.1z"/>
		</g>
	</g>
</g>
</svg>
